<svg xmlns="http://www.w3.org/2000/svg" viewBox="0 0 539.9 52.2"><style type="text/css">  
	.st0{fill:#00AF73;}
	.st1{fill:#F8951D;}
	.st2{fill:#EE2A7B;}
	.st3{fill:#B2D235;}
	.st4{fill:#B1A1AB;}
	.st5{fill:#00A7E2;}
	.st6{fill:#EF382E;}
	.st7{fill:#8355A3;}
	.st8{fill:#3A5BA9;}
	.st9{fill:#0DB14B;}
	.st10{fill:#FFFFFF;}
</style><path class="st10" d="M337 11.3c-0.5-0.5-1.1-0.9-1.8-1.2 -0.7-0.3-1.5-0.5-2.4-0.5 -0.9 0-1.8 0.2-2.5 0.5 -0.7 0.4-1.4 0.8-1.9 1.4 -0.5 0.6-0.9 1.3-1.2 2 -0.3 0.8-0.4 1.6-0.4 2.4s0.1 1.7 0.4 2.4c0.3 0.8 0.7 1.5 1.2 2 0.5 0.6 1.2 1.1 1.9 1.4 0.8 0.4 1.6 0.5 2.5 0.5 0.8 0 1.5-0.1 2.2-0.3 0.7-0.2 1.3-0.4 1.9-0.8v-4.9h-3.5v-1.4h5v7.2c-0.8 0.5-1.7 0.9-2.7 1.1 -1 0.3-1.9 0.4-2.8 0.4 -1.1 0-2.1-0.2-3-0.6 -0.9-0.4-1.7-0.9-2.4-1.6 -0.7-0.7-1.2-1.5-1.6-2.4 -0.4-0.9-0.6-2-0.6-3.1 0-1.1 0.2-2.2 0.6-3.1 0.4-0.9 0.9-1.8 1.6-2.4 0.7-0.7 1.5-1.2 2.4-1.6 0.9-0.4 2-0.6 3.1-0.6 1.2 0 2.2 0.2 3.1 0.5 0.9 0.3 1.6 0.8 2.3 1.5L337 11.3z"/><path class="st10" d="M346.8 23.3h-1.5v-6.3l-5.5-8.4h1.9l4.4 7 4.4-6.9h1.9l-5.5 8.4V23.3z"/><path class="st10" d="M361.1 20.6l5-12h2.3V23.3h-1.5V10.6h0l-5.3 12.7h-0.8l-5.3-12.7h0V23.3h-1.5V8.6h2.3L361.1 20.6z"/><path class="st10" d="M382.8 21.1h0V8.6h1.5V23.3h-1.9l-8.8-12.6h0V23.3h-1.5V8.6h1.9L382.8 21.1z"/><path class="st10" d="M387.9 23.3h-1.7l6.4-14.7h1.5l6.4 14.7h-1.7l-1.6-3.9h-7.5L387.9 23.3zM390 18.1h6.4l-3.2-7.7L390 18.1z"/><path class="st10" d="M409.2 11c-0.6-1-1.6-1.4-2.8-1.4 -0.4 0-0.8 0.1-1.1 0.2s-0.7 0.3-1 0.5 -0.5 0.5-0.7 0.8c-0.2 0.3-0.3 0.7-0.3 1.2 0 0.7 0.2 1.2 0.6 1.6 0.4 0.4 0.8 0.7 1.4 0.9 0.6 0.2 1.2 0.5 1.8 0.6 0.7 0.2 1.3 0.4 1.8 0.8 0.6 0.3 1 0.7 1.4 1.2 0.4 0.5 0.6 1.2 0.6 2.1 0 0.7-0.1 1.3-0.4 1.8 -0.3 0.5-0.7 1-1.1 1.3 -0.5 0.4-1 0.6-1.6 0.8 -0.6 0.2-1.2 0.3-1.7 0.3 -0.9 0-1.8-0.2-2.6-0.5 -0.8-0.3-1.5-0.9-2.1-1.7l1.4-1c0.3 0.5 0.8 1 1.3 1.3 0.6 0.3 1.2 0.5 2 0.5 0.4 0 0.8-0.1 1.1-0.2 0.4-0.1 0.7-0.3 1-0.5 0.3-0.2 0.5-0.5 0.7-0.8 0.2-0.3 0.3-0.7 0.3-1.1 0-0.5-0.1-0.9-0.3-1.3 -0.2-0.3-0.5-0.6-0.8-0.8 -0.3-0.2-0.8-0.4-1.2-0.6 -0.4-0.1-0.9-0.3-1.4-0.5 -0.5-0.1-0.9-0.3-1.4-0.5 -0.4-0.2-0.8-0.4-1.2-0.7 -0.3-0.3-0.6-0.7-0.8-1.1 -0.2-0.4-0.3-1-0.3-1.7 0-0.7 0.1-1.3 0.4-1.8 0.3-0.5 0.6-1 1.1-1.3 0.5-0.3 1-0.6 1.5-0.8 0.6-0.2 1.2-0.2 1.8-0.2 0.8 0 1.6 0.1 2.3 0.4 0.7 0.3 1.3 0.7 1.9 1.4L409.2 11z"/><path class="st10" d="M418.3 23.3h-1.5V9.9h-4.9V8.6h11.4v1.4h-4.9V23.3z"/><path class="st10" d="M426.8 23.3h-1.5V8.6h1.5V23.3z"/><path class="st10" d="M432.1 15h0 0.2l6.9-6.4h2.1l-7.4 6.7 7.9 8.1h-2.2l-7.2-7.6h-0.2 0v7.6h-1.5V8.6h1.5V15z"/><path class="st10" d="M445.8 17.3h-5.3v-1.4h5.4V17.3z"/><path class="st10" d="M463.2 19.9l3.3 3.4h-2.1l-2.1-2.2c-0.6 0.8-1.3 1.4-2 1.9 -0.7 0.5-1.5 0.7-2.5 0.7 -0.6 0-1.2-0.1-1.8-0.3 -0.6-0.2-1-0.5-1.5-0.8 -0.4-0.4-0.8-0.8-1-1.3 -0.2-0.5-0.4-1.1-0.4-1.8 0-0.5 0.1-1 0.3-1.5 0.2-0.4 0.4-0.8 0.7-1.2 0.3-0.3 0.7-0.7 1.1-0.9 0.4-0.3 0.8-0.5 1.3-0.7 -0.4-0.5-0.8-1-1.2-1.6 -0.3-0.6-0.5-1.2-0.5-1.9 0-0.5 0.1-1 0.3-1.5 0.2-0.4 0.5-0.8 0.8-1.1 0.3-0.3 0.7-0.5 1.2-0.7 0.4-0.1 0.9-0.2 1.5-0.2 0.5 0 0.9 0.1 1.4 0.2 0.4 0.2 0.8 0.4 1.1 0.6 0.3 0.3 0.6 0.6 0.8 1 0.2 0.4 0.3 0.9 0.3 1.4 0 0.5-0.1 0.9-0.3 1.3 -0.2 0.4-0.4 0.7-0.8 1 -0.3 0.3-0.7 0.6-1 0.8 -0.4 0.2-0.8 0.5-1.1 0.7l3.4 3.5 2-3.5h1.7L463.2 19.9zM457.5 16.1c-0.5 0.3-0.9 0.5-1.2 0.8 -0.3 0.2-0.6 0.5-0.8 0.8s-0.4 0.6-0.5 0.9c-0.1 0.3-0.1 0.7-0.1 1 0 0.4 0.1 0.8 0.3 1.2 0.2 0.4 0.4 0.6 0.7 0.9 0.3 0.2 0.6 0.4 1 0.6 0.4 0.1 0.7 0.2 1.2 0.2 0.4 0 0.8-0.1 1.1-0.2 0.3-0.1 0.6-0.3 0.9-0.5 0.3-0.2 0.6-0.4 0.8-0.7 0.3-0.3 0.5-0.5 0.7-0.8L457.5 16.1zM460.5 11.5c0-0.6-0.2-1-0.6-1.4 -0.4-0.3-0.9-0.5-1.4-0.5 -0.6 0-1.1 0.2-1.6 0.6 -0.4 0.4-0.6 0.9-0.6 1.6 0 0.3 0.1 0.5 0.2 0.8 0.1 0.3 0.3 0.5 0.4 0.8 0.2 0.2 0.3 0.5 0.5 0.7 0.2 0.2 0.3 0.4 0.5 0.5 0.3-0.2 0.6-0.3 0.9-0.5 0.3-0.2 0.6-0.4 0.9-0.6 0.3-0.2 0.5-0.5 0.7-0.8C460.4 12.2 460.5 11.9 460.5 11.5z"/><path class="st10" d="M328.2 43.8h-1.5V29h1.5V43.8z"/><path class="st10" d="M331.8 29h4.9c0.9 0 1.8 0.2 2.8 0.5 0.9 0.3 1.8 0.8 2.5 1.4 0.7 0.6 1.3 1.4 1.8 2.3 0.5 0.9 0.7 2 0.7 3.2 0 1.2-0.2 2.3-0.7 3.2 -0.5 0.9-1.1 1.7-1.8 2.3 -0.7 0.6-1.6 1.1-2.5 1.4 -0.9 0.3-1.8 0.5-2.8 0.5h-4.9V29zM333.3 42.4h2.9c1.1 0 2.1-0.2 2.9-0.5 0.8-0.3 1.5-0.8 2.1-1.3 0.6-0.6 1-1.2 1.2-1.9 0.3-0.7 0.4-1.4 0.4-2.2 0-0.8-0.1-1.5-0.4-2.2 -0.3-0.7-0.7-1.3-1.2-1.9 -0.5-0.6-1.2-1-2.1-1.3 -0.8-0.3-1.8-0.5-2.9-0.5h-2.9V42.4z"/><path class="st10" d="M348.7 43.8h-1.5V29h4.5c1.5 0 2.7 0.3 3.6 1 0.9 0.7 1.3 1.6 1.3 3 0 1-0.3 1.9-1 2.6 -0.6 0.7-1.6 1.1-2.8 1.2l4.3 7h-1.8l-4-6.8h-2.5V43.8zM348.7 35.6h2.7c0.7 0 1.2-0.1 1.7-0.2 0.5-0.1 0.8-0.3 1.1-0.5 0.3-0.2 0.5-0.5 0.6-0.8 0.1-0.3 0.2-0.6 0.2-1 0-0.3-0.1-0.7-0.2-1 -0.1-0.3-0.3-0.6-0.6-0.8 -0.3-0.2-0.6-0.4-1.1-0.5 -0.5-0.1-1-0.2-1.7-0.2h-2.7V35.6z"/><path class="st10" d="M369.5 35.4h5.8v1.4h-5.7v5.6h6.4v1.4h-7.9v-4.1h-6.2l-2.7 4.1h-1.8l9.6-14.7h8.7v1.4h-6.1V35.4zM368 38.3v-7.9h-0.2l-5.1 7.9H368z"/><path class="st10" d="M383.5 43.8h-1.5V30.4h-4.9v-1.4h11.4v1.4h-4.9V43.8z"/><path class="st10" d="M397.5 31.5c-0.6-1-1.6-1.4-2.8-1.4 -0.4 0-0.8 0.1-1.1 0.2 -0.4 0.1-0.7 0.3-1 0.5s-0.5 0.5-0.7 0.8c-0.2 0.3-0.3 0.7-0.3 1.2 0 0.7 0.2 1.2 0.6 1.6 0.4 0.4 0.8 0.7 1.4 0.9 0.6 0.2 1.2 0.5 1.8 0.6 0.7 0.2 1.3 0.4 1.8 0.8 0.6 0.3 1 0.7 1.4 1.2 0.4 0.5 0.6 1.2 0.6 2.1 0 0.7-0.1 1.3-0.4 1.8 -0.3 0.5-0.7 1-1.1 1.3 -0.5 0.4-1 0.6-1.6 0.8 -0.6 0.2-1.2 0.3-1.7 0.3 -0.9 0-1.8-0.2-2.6-0.5 -0.8-0.3-1.5-0.9-2.1-1.7l1.4-1c0.3 0.5 0.8 1 1.3 1.3 0.6 0.3 1.2 0.5 2 0.5 0.4 0 0.8-0.1 1.1-0.2 0.4-0.1 0.7-0.3 1-0.5 0.3-0.2 0.5-0.5 0.7-0.8 0.2-0.3 0.3-0.7 0.3-1.1 0-0.5-0.1-0.9-0.3-1.3 -0.2-0.3-0.5-0.6-0.8-0.8 -0.3-0.2-0.8-0.4-1.2-0.6 -0.4-0.1-0.9-0.3-1.4-0.5 -0.5-0.1-0.9-0.3-1.4-0.5 -0.4-0.2-0.8-0.4-1.2-0.7 -0.3-0.3-0.6-0.7-0.8-1.1 -0.2-0.4-0.3-1-0.3-1.7 0-0.7 0.1-1.3 0.4-1.8 0.3-0.5 0.6-1 1.1-1.3 0.5-0.3 1-0.6 1.5-0.8 0.6-0.2 1.2-0.2 1.8-0.2 0.8 0 1.6 0.1 2.3 0.4 0.7 0.3 1.3 0.7 1.9 1.4L397.5 31.5z"/><path class="st10" d="M401.5 29h10v3h-6.8v2.8h6.4v3h-6.4v3h7.1v3h-10.4V29z"/><path class="st10" d="M414.4 29h9.9v3h-6.6v3h6.1v3h-6.1v5.8h-3.2V29z"/><path class="st10" d="M429.3 31.9h-4.2v-2.9h11.7v2.9h-4.2v11.9h-3.2V31.9z"/><path class="st10" d="M438.3 29h10v3h-6.8v2.8h6.4v3h-6.4v3h7.1v3H438.3V29z"/><path class="st10" d="M451.1 29h5.7c0.8 0 1.5 0.1 2.1 0.2 0.7 0.2 1.3 0.4 1.8 0.7 0.5 0.3 0.9 0.8 1.2 1.4 0.3 0.6 0.5 1.3 0.5 2.2 0 1-0.3 1.9-0.8 2.7 -0.5 0.7-1.3 1.2-2.4 1.4l3.8 6.2h-3.9l-3.1-5.9h-1.6v5.9h-3.2V29zM454.3 35.1h1.9c0.3 0 0.6 0 0.9 0 0.3 0 0.6-0.1 0.9-0.2 0.3-0.1 0.5-0.3 0.7-0.5 0.2-0.2 0.3-0.5 0.3-0.9 0-0.4-0.1-0.7-0.2-0.9 -0.1-0.2-0.3-0.4-0.6-0.5 -0.2-0.1-0.5-0.2-0.8-0.2 -0.3 0-0.6-0.1-0.9-0.1h-2.1V35.1z"/><path class="st10" d="M471.7 32.6c-0.3-0.3-0.6-0.6-1.1-0.7 -0.4-0.2-0.9-0.2-1.3-0.2 -0.2 0-0.5 0-0.7 0.1 -0.2 0.1-0.5 0.1-0.7 0.3 -0.2 0.1-0.4 0.3-0.5 0.5 -0.1 0.2-0.2 0.4-0.2 0.7 0 0.5 0.2 0.8 0.5 1 0.3 0.2 0.8 0.4 1.3 0.6 0.5 0.2 1.1 0.3 1.6 0.5 0.6 0.2 1.1 0.4 1.6 0.7 0.5 0.3 0.9 0.7 1.3 1.2 0.3 0.5 0.5 1.2 0.5 2.1 0 0.8-0.1 1.5-0.5 2.1 -0.3 0.6-0.7 1.1-1.2 1.5 -0.5 0.4-1.1 0.7-1.8 0.9 -0.7 0.2-1.4 0.3-2.2 0.3 -1 0-1.8-0.1-2.7-0.4 -0.8-0.3-1.6-0.8-2.3-1.4l2.3-2.5c0.3 0.4 0.8 0.8 1.3 1 0.5 0.2 1 0.4 1.6 0.4 0.3 0 0.5 0 0.8-0.1 0.3-0.1 0.5-0.2 0.7-0.3 0.2-0.1 0.4-0.3 0.5-0.5 0.1-0.2 0.2-0.4 0.2-0.7 0-0.4-0.2-0.8-0.5-1 -0.3-0.3-0.8-0.5-1.3-0.7 -0.5-0.2-1.1-0.4-1.7-0.5 -0.6-0.2-1.1-0.4-1.7-0.7 -0.5-0.3-0.9-0.7-1.3-1.2 -0.3-0.5-0.5-1.2-0.5-2 0-0.8 0.2-1.5 0.5-2.1 0.3-0.6 0.7-1.1 1.3-1.5 0.5-0.4 1.1-0.7 1.8-0.9 0.7-0.2 1.4-0.3 2.1-0.3 0.8 0 1.6 0.1 2.4 0.4 0.8 0.2 1.5 0.6 2.1 1.2L471.7 32.6z"/><path class="st10" d="M476.2 29h3.3v6.1l5.7-6.1h4.3l-6.6 6.9 7.1 7.9h-4.5l-6-7v7h-3.2V29z"/><path class="st10" d="M490.1 36.4c0-1.2 0.2-2.2 0.6-3.2 0.4-1 1-1.8 1.7-2.4 0.7-0.7 1.6-1.2 2.5-1.5 1-0.4 2-0.5 3.2-0.5 1.2 0 2.2 0.2 3.2 0.5 1 0.4 1.8 0.9 2.5 1.6 0.7 0.7 1.3 1.5 1.7 2.5 0.4 1 0.6 2 0.6 3.2 0 1.2-0.2 2.3-0.6 3.2 -0.4 1-0.9 1.8-1.6 2.5 -0.7 0.7-1.5 1.2-2.5 1.6 -1 0.4-2 0.5-3.2 0.5 -1.1 0-2.2-0.2-3.2-0.5 -1-0.4-1.8-0.9-2.5-1.5 -0.7-0.7-1.3-1.5-1.6-2.4C490.3 38.7 490.1 37.6 490.1 36.4zM493.5 36.4c0 0.7 0.1 1.3 0.3 1.9 0.2 0.6 0.5 1.1 0.9 1.5 0.4 0.4 0.9 0.8 1.5 1 0.6 0.2 1.2 0.4 1.9 0.4 0.7 0 1.3-0.1 1.9-0.3 0.6-0.2 1-0.6 1.5-1 0.4-0.4 0.7-0.9 0.9-1.5 0.2-0.6 0.3-1.2 0.3-1.9 0-0.7-0.1-1.3-0.3-1.9 -0.2-0.6-0.5-1.1-0.9-1.5 -0.4-0.4-0.9-0.7-1.4-1 -0.6-0.2-1.2-0.3-1.9-0.3 -0.7 0-1.3 0.1-1.9 0.4 -0.6 0.2-1 0.6-1.4 1 -0.4 0.4-0.7 0.9-0.9 1.5C493.6 35.1 493.5 35.7 493.5 36.4z"/><path class="st10" d="M508.2 29h3.3v11.7h6v3h-9.3V29z"/><path class="st10" d="M519.1 29h10v3h-6.8v2.8h6.4v3h-6.4v3h7.1v3h-10.4V29z"/><path class="st10" d="M9.3 8.3h7.9v28.4h14.6v7.3H9.3V8.3z"/><path class="st10" d="M33.6 26.2c0-2.8 0.5-5.4 1.4-7.8 1-2.3 2.3-4.3 4-5.9 1.7-1.6 3.7-2.9 6.1-3.7 2.4-0.9 4.9-1.3 7.7-1.3 2.8 0 5.4 0.4 7.7 1.3 2.4 0.9 4.4 2.1 6.1 3.8 1.7 1.6 3.1 3.6 4 5.9 1 2.3 1.4 4.9 1.4 7.8 0 2.9-0.5 5.4-1.4 7.8 -1 2.3-2.3 4.3-4 5.9 -1.7 1.6-3.7 2.9-6.1 3.8 -2.3 0.9-4.9 1.3-7.7 1.3 -2.8 0-5.4-0.4-7.7-1.3 -2.3-0.9-4.4-2.1-6.1-3.7 -1.7-1.6-3-3.6-4-5.9C34.1 31.6 33.6 29 33.6 26.2zM41.8 26.2c0 1.7 0.3 3.2 0.8 4.6 0.5 1.4 1.3 2.6 2.2 3.6 1 1 2.1 1.8 3.5 2.4 1.4 0.6 2.9 0.9 4.6 0.9 1.7 0 3.2-0.3 4.6-0.9 1.4-0.6 2.5-1.4 3.5-2.4 1-1 1.7-2.2 2.2-3.6 0.5-1.4 0.8-2.9 0.8-4.6 0-1.6-0.3-3.2-0.8-4.6 -0.5-1.4-1.3-2.6-2.2-3.6 -1-1-2.1-1.8-3.5-2.4 -1.4-0.6-2.9-0.9-4.6-0.9 -1.7 0-3.2 0.3-4.6 0.9 -1.4 0.6-2.5 1.4-3.5 2.4 -1 1-1.7 2.2-2.2 3.7C42 23 41.8 24.5 41.8 26.2z"/><path class="st10" d="M76.9 8.3h11.9l8.2 23.3h0.1l8.3-23.3h11.8v35.7h-7.9V16.6h-0.1l-9.4 27.4h-6L84.9 16.6h-0.1v27.4h-7.9V8.3z"/><path class="st10" d="M124.8 8.3h13.3c1.5 0 3.1 0.1 4.7 0.3 1.6 0.2 3 0.7 4.2 1.3 1.2 0.7 2.3 1.6 3 2.8 0.8 1.2 1.2 2.7 1.2 4.7 0 2-0.6 3.7-1.7 5 -1.1 1.3-2.6 2.3-4.5 2.9v0.1c1.2 0.2 2.2 0.5 3.2 1 1 0.5 1.8 1.1 2.5 1.9 0.7 0.8 1.2 1.6 1.6 2.6 0.4 1 0.6 2.1 0.6 3.2 0 1.9-0.4 3.5-1.2 4.7 -0.8 1.3-1.8 2.3-3.1 3.1 -1.3 0.8-2.7 1.3-4.3 1.7 -1.6 0.3-3.2 0.5-4.8 0.5h-14.6V8.3zM132.7 22.6h5.7c0.6 0 1.2-0.1 1.8-0.2 0.6-0.1 1.1-0.3 1.6-0.6 0.5-0.3 0.9-0.7 1.1-1.2 0.3-0.5 0.4-1.1 0.4-1.8 0-0.7-0.2-1.3-0.5-1.8 -0.3-0.5-0.7-0.9-1.2-1.1 -0.5-0.3-1.1-0.5-1.7-0.6 -0.6-0.1-1.3-0.2-1.9-0.2h-5.3V22.6zM132.7 37.3h7.1c0.6 0 1.2-0.1 1.8-0.2 0.6-0.1 1.2-0.4 1.7-0.7 0.5-0.3 0.9-0.8 1.2-1.3 0.3-0.5 0.5-1.2 0.5-2 0-0.8-0.2-1.5-0.6-2 -0.4-0.5-0.9-0.9-1.6-1.2 -0.6-0.3-1.3-0.4-2.1-0.5 -0.7-0.1-1.4-0.1-2.1-0.1h-5.9V37.3z"/><path class="st10" d="M155.1 26.2c0-2.8 0.5-5.4 1.4-7.8 1-2.3 2.3-4.3 4-5.9 1.7-1.6 3.7-2.9 6.1-3.7 2.4-0.9 4.9-1.3 7.7-1.3 2.8 0 5.4 0.4 7.7 1.3 2.4 0.9 4.4 2.1 6.1 3.8 1.7 1.6 3.1 3.6 4 5.9 1 2.3 1.4 4.9 1.4 7.8s-0.5 5.4-1.4 7.8c-1 2.3-2.3 4.3-4 5.9 -1.7 1.6-3.7 2.9-6.1 3.8 -2.3 0.9-4.9 1.3-7.7 1.3 -2.8 0-5.4-0.4-7.7-1.3 -2.3-0.9-4.4-2.1-6.1-3.7 -1.7-1.6-3-3.6-4-5.9C155.5 31.6 155.1 29 155.1 26.2zM163.2 26.2c0 1.7 0.3 3.2 0.8 4.6 0.5 1.4 1.3 2.6 2.2 3.6 1 1 2.1 1.8 3.5 2.4 1.4 0.6 2.9 0.9 4.6 0.9 1.7 0 3.2-0.3 4.6-0.9 1.4-0.6 2.5-1.4 3.5-2.4 1-1 1.7-2.2 2.2-3.6 0.5-1.4 0.8-2.9 0.8-4.6 0-1.6-0.3-3.2-0.8-4.6 -0.5-1.4-1.3-2.6-2.2-3.6 -1-1-2.1-1.8-3.5-2.4 -1.4-0.6-2.9-0.9-4.6-0.9 -1.7 0-3.2 0.3-4.6 0.9 -1.4 0.6-2.5 1.4-3.5 2.4 -1 1-1.7 2.2-2.2 3.7C163.5 23 163.2 24.5 163.2 26.2z"/><path class="st10" d="M198.4 8.3h13.8c1.8 0 3.5 0.2 5.2 0.5 1.6 0.4 3.1 0.9 4.3 1.8 1.2 0.8 2.2 1.9 2.9 3.3 0.7 1.4 1.1 3.1 1.1 5.2 0 2.5-0.6 4.7-2 6.4 -1.3 1.8-3.2 2.9-5.7 3.4l9.1 15.1h-9.4l-7.5-14.2h-3.9v14.3h-7.9V8.3zM206.2 23.1h4.6c0.7 0 1.5 0 2.2-0.1 0.8 0 1.5-0.2 2.1-0.4 0.6-0.2 1.2-0.6 1.6-1.2 0.4-0.5 0.6-1.3 0.6-2.3 0-0.9-0.2-1.6-0.5-2.2 -0.4-0.5-0.8-0.9-1.4-1.2 -0.6-0.3-1.2-0.5-2-0.6 -0.7-0.1-1.5-0.1-2.2-0.1h-5.1V23.1z"/><path class="st10" d="M262.8 41.5c-2.3 1.2-4.7 2.1-7.2 2.6 -2.5 0.5-5.1 0.8-7.7 0.8 -2.8 0-5.4-0.4-7.7-1.3 -2.3-0.9-4.4-2.1-6.1-3.7 -1.7-1.6-3-3.6-4-5.9 -1-2.3-1.4-4.9-1.4-7.8s0.5-5.4 1.4-7.8c1-2.3 2.3-4.3 4-5.9 1.7-1.6 3.7-2.9 6.1-3.7 2.4-0.9 4.9-1.3 7.7-1.3 2.9 0 5.5 0.4 7.9 1 2.4 0.7 4.5 1.9 6.3 3.6l-5.5 6c-1.1-1.1-2.3-1.9-3.6-2.5 -1.3-0.6-3-0.9-5-0.9 -1.7 0-3.2 0.3-4.6 0.9 -1.4 0.6-2.5 1.4-3.5 2.4 -1 1-1.7 2.2-2.2 3.7 -0.5 1.4-0.8 2.9-0.8 4.6 0 1.7 0.3 3.2 0.8 4.6 0.5 1.4 1.3 2.6 2.2 3.6 1 1 2.1 1.8 3.5 2.4 1.4 0.6 2.9 0.9 4.6 0.9 1.7 0 3.2-0.2 4.4-0.6 1.2-0.4 2.2-0.8 3-1.2v-5.8h-6.4v-7.2h14V41.5z"/><path class="st0" d="M278.9 39.2c0.3 0 0.6 0.1 0.9 0.1 0.2 0.1 0.4 0.2 0.6 0.4 0.2 0.1 0.3 0.3 0.4 0.5 0.1 0.2 0.2 0.5 0.2 0.8 0 0.3 0 0.6-0.1 0.8 -0.1 0.2-0.2 0.4-0.4 0.5 -0.2 0.2-0.3 0.3-0.6 0.4 -0.3 0.1-0.6 0.2-0.9 0.2 -0.3 0-0.6 0-0.9-0.1 -0.2-0.1-0.4-0.2-0.6-0.3 -0.1-0.1-0.3-0.3-0.4-0.5 -0.1-0.2-0.1-0.5-0.1-0.8 0-0.3 0.1-0.6 0.1-0.8 0.1-0.2 0.2-0.4 0.4-0.5 0.2-0.1 0.4-0.3 0.6-0.3C278.3 39.3 278.6 39.2 278.9 39.2M278.9 37.3c-0.6 0-1.1 0.1-1.6 0.3 -0.5 0.2-0.9 0.4-1.2 0.8 -0.3 0.3-0.6 0.7-0.8 1.2 -0.2 0.5-0.3 1-0.3 1.6s0.1 1.1 0.3 1.6c0.2 0.5 0.5 0.9 0.8 1.2 0.4 0.3 0.8 0.6 1.2 0.8 0.5 0.2 1 0.3 1.6 0.3s1.1-0.1 1.6-0.3c0.5-0.2 0.9-0.4 1.2-0.8 0.4-0.3 0.6-0.7 0.8-1.2 0.2-0.5 0.3-1 0.3-1.6s-0.1-1.1-0.3-1.6c-0.2-0.5-0.5-0.9-0.8-1.2 -0.3-0.3-0.8-0.6-1.2-0.8C280 37.4 279.5 37.3 278.9 37.3L278.9 37.3z"/><path class="st1" d="M275 31.1c0-0.6 0.1-1.1 0.3-1.6 0.2-0.5 0.5-0.9 0.8-1.2 0.4-0.3 0.8-0.6 1.2-0.8 0.5-0.2 1-0.3 1.6-0.3s1.1 0.1 1.6 0.3c0.5 0.2 0.9 0.4 1.2 0.8 0.4 0.3 0.6 0.7 0.8 1.2 0.2 0.5 0.3 1 0.3 1.6s-0.1 1.1-0.3 1.6c-0.2 0.5-0.5 0.9-0.8 1.2 -0.3 0.3-0.8 0.6-1.2 0.8 -0.5 0.2-1 0.3-1.6 0.3s-1.1-0.1-1.6-0.3c-0.5-0.2-0.9-0.4-1.2-0.8 -0.3-0.3-0.6-0.7-0.8-1.2S275 31.7 275 31.1zM276.7 31.1c0 0.3 0.1 0.7 0.2 0.9 0.1 0.3 0.3 0.5 0.5 0.7 0.2 0.2 0.4 0.4 0.7 0.5 0.3 0.1 0.6 0.2 0.9 0.2s0.7-0.1 0.9-0.2c0.3-0.1 0.5-0.3 0.7-0.5 0.2-0.2 0.4-0.4 0.5-0.7 0.1-0.3 0.2-0.6 0.2-0.9 0-0.3 0-0.6-0.2-0.9 -0.1-0.3-0.3-0.5-0.5-0.7 -0.2-0.2-0.4-0.4-0.7-0.5 -0.3-0.1-0.6-0.2-0.9-0.2s-0.6 0.1-0.9 0.2 -0.5 0.3-0.7 0.5c-0.2 0.2-0.3 0.5-0.5 0.7C276.7 30.5 276.7 30.8 276.7 31.1z"/><path class="st2" d="M275 20.9c0-0.6 0.1-1.1 0.3-1.6 0.2-0.5 0.5-0.9 0.8-1.2 0.4-0.3 0.8-0.6 1.2-0.8 0.5-0.2 1-0.3 1.6-0.3s1.1 0.1 1.6 0.3c0.5 0.2 0.9 0.4 1.2 0.8 0.4 0.3 0.6 0.7 0.8 1.2 0.2 0.5 0.3 1 0.3 1.6 0 0.6-0.1 1.1-0.3 1.6 -0.2 0.5-0.5 0.9-0.8 1.2 -0.3 0.3-0.8 0.6-1.2 0.8 -0.5 0.2-1 0.3-1.6 0.3s-1.1-0.1-1.6-0.3c-0.5-0.2-0.9-0.4-1.2-0.8 -0.3-0.3-0.6-0.7-0.8-1.2C275.1 22 275 21.5 275 20.9zM276.7 20.9c0 0.3 0.1 0.7 0.2 0.9 0.1 0.3 0.3 0.5 0.5 0.7 0.2 0.2 0.4 0.4 0.7 0.5 0.3 0.1 0.6 0.2 0.9 0.2s0.7-0.1 0.9-0.2c0.3-0.1 0.5-0.3 0.7-0.5 0.2-0.2 0.4-0.4 0.5-0.7 0.1-0.3 0.2-0.6 0.2-0.9 0-0.3 0-0.6-0.2-0.9 -0.1-0.3-0.3-0.5-0.5-0.7 -0.2-0.2-0.4-0.4-0.7-0.5 -0.3-0.1-0.6-0.2-0.9-0.2s-0.6 0.1-0.9 0.2c-0.3 0.1-0.5 0.3-0.7 0.5 -0.2 0.2-0.3 0.5-0.5 0.7C276.7 20.3 276.7 20.6 276.7 20.9z"/><path class="st3" d="M278.9 7.9c0.5 0 0.9 0.1 1.2 0.2 0.4 0.1 0.7 0.3 0.9 0.6 0.3 0.2 0.4 0.5 0.6 0.9 0.2 0.4 0.2 0.8 0.2 1.2 0 0.5-0.1 0.9-0.2 1.2 -0.1 0.4-0.3 0.6-0.6 0.9 -0.2 0.2-0.5 0.4-0.9 0.6 -0.4 0.1-0.8 0.2-1.2 0.2 -0.4 0-0.9-0.1-1.2-0.2 -0.4-0.1-0.6-0.3-0.9-0.6 -0.2-0.2-0.4-0.5-0.6-0.9 -0.1-0.3-0.2-0.8-0.2-1.2 0-0.4 0.1-0.9 0.2-1.2 0.1-0.3 0.3-0.6 0.6-0.9 0.3-0.2 0.6-0.4 0.9-0.6C278.1 8 278.5 7.9 278.9 7.9M278.9 6.9c-0.6 0-1.1 0.1-1.6 0.3 -0.5 0.2-0.9 0.4-1.2 0.8 -0.3 0.3-0.6 0.7-0.8 1.2 -0.2 0.5-0.3 1-0.3 1.6 0 0.6 0.1 1.1 0.3 1.6 0.2 0.5 0.5 0.9 0.8 1.2 0.4 0.3 0.8 0.6 1.2 0.8 0.5 0.2 1 0.3 1.6 0.3s1.1-0.1 1.6-0.3c0.5-0.2 0.9-0.4 1.2-0.8 0.4-0.3 0.6-0.7 0.8-1.2 0.2-0.5 0.3-1 0.3-1.6 0-0.6-0.1-1.1-0.3-1.6 -0.2-0.5-0.5-0.9-0.8-1.2 -0.3-0.3-0.8-0.6-1.2-0.8C280 7 279.5 6.9 278.9 6.9L278.9 6.9z"/><path class="st4" d="M285.1 41.1c0-0.6 0.1-1.1 0.3-1.6 0.2-0.5 0.5-0.9 0.8-1.2 0.4-0.3 0.8-0.6 1.2-0.8 0.5-0.2 1-0.3 1.6-0.3 0.6 0 1.1 0.1 1.6 0.3 0.5 0.2 0.9 0.4 1.2 0.8 0.4 0.3 0.6 0.7 0.8 1.2 0.2 0.5 0.3 1 0.3 1.6s-0.1 1.1-0.3 1.6c-0.2 0.5-0.5 0.9-0.8 1.2 -0.3 0.3-0.8 0.6-1.2 0.8 -0.5 0.2-1 0.3-1.6 0.3 -0.6 0-1.1-0.1-1.6-0.3 -0.5-0.2-0.9-0.4-1.2-0.8 -0.3-0.3-0.6-0.7-0.8-1.2C285.2 42.2 285.1 41.7 285.1 41.1zM286.8 41.1c0 0.3 0.1 0.7 0.2 0.9 0.1 0.3 0.3 0.5 0.5 0.7 0.2 0.2 0.4 0.4 0.7 0.5s0.6 0.2 0.9 0.2c0.3 0 0.7-0.1 0.9-0.2 0.3-0.1 0.5-0.3 0.7-0.5 0.2-0.2 0.4-0.4 0.5-0.7 0.1-0.3 0.2-0.6 0.2-0.9 0-0.3 0-0.6-0.2-0.9 -0.1-0.3-0.3-0.5-0.5-0.7 -0.2-0.2-0.4-0.4-0.7-0.5 -0.3-0.1-0.6-0.2-0.9-0.2 -0.3 0-0.6 0.1-0.9 0.2s-0.5 0.3-0.7 0.5c-0.2 0.2-0.3 0.5-0.5 0.7C286.8 40.5 286.8 40.8 286.8 41.1z"/><path class="st5" d="M289 28.3c0.5 0 0.9 0.1 1.2 0.2 0.4 0.1 0.7 0.3 0.9 0.6 0.3 0.2 0.4 0.5 0.6 0.9 0.2 0.4 0.2 0.8 0.2 1.2 0 0.5-0.1 0.9-0.2 1.2 -0.1 0.4-0.3 0.6-0.6 0.9 -0.2 0.2-0.5 0.4-0.9 0.6 -0.4 0.1-0.8 0.2-1.2 0.2 -0.4 0-0.9-0.1-1.2-0.2 -0.4-0.1-0.6-0.3-0.9-0.6 -0.2-0.2-0.4-0.5-0.6-0.9 -0.1-0.3-0.2-0.8-0.2-1.2 0-0.4 0.1-0.9 0.2-1.2 0.1-0.3 0.3-0.6 0.6-0.9 0.3-0.2 0.6-0.4 0.9-0.6C288.2 28.3 288.6 28.3 289 28.3M289 27.3c-0.6 0-1.1 0.1-1.6 0.3 -0.5 0.2-0.9 0.4-1.2 0.8 -0.3 0.3-0.6 0.7-0.8 1.2 -0.2 0.5-0.3 1-0.3 1.6s0.1 1.1 0.3 1.6c0.2 0.5 0.5 0.9 0.8 1.2 0.4 0.3 0.8 0.6 1.2 0.8 0.5 0.2 1 0.3 1.6 0.3 0.6 0 1.1-0.1 1.6-0.3 0.5-0.2 0.9-0.4 1.2-0.8 0.4-0.3 0.6-0.7 0.8-1.2 0.2-0.5 0.3-1 0.3-1.6s-0.1-1.1-0.3-1.6c-0.2-0.5-0.5-0.9-0.8-1.2 -0.3-0.3-0.8-0.6-1.2-0.8C290.1 27.4 289.6 27.3 289 27.3L289 27.3z"/><path class="st6" d="M289 19.8c0.3 0 0.5 0 0.6 0.1 0.1 0.1 0.2 0.1 0.3 0.2 0.1 0.1 0.1 0.1 0.2 0.3 0.1 0.1 0.1 0.3 0.1 0.6 0 0.2 0 0.4-0.1 0.6 -0.1 0.2-0.1 0.2-0.2 0.3 -0.1 0.1-0.2 0.1-0.3 0.2 -0.2 0.1-0.4 0.1-0.6 0.1s-0.5 0-0.6-0.1c-0.1 0-0.2-0.1-0.3-0.2 0 0-0.1-0.1-0.2-0.3 -0.1-0.1-0.1-0.3-0.1-0.6 0-0.2 0-0.4 0.1-0.6 0.1-0.2 0.1-0.2 0.2-0.3 0.1-0.1 0.2-0.1 0.3-0.2C288.6 19.8 288.8 19.8 289 19.8M289 17.1c-0.6 0-1.1 0.1-1.6 0.3 -0.5 0.2-0.9 0.4-1.2 0.8 -0.3 0.3-0.6 0.7-0.8 1.2 -0.2 0.5-0.3 1-0.3 1.6 0 0.6 0.1 1.1 0.3 1.6 0.2 0.5 0.5 0.9 0.8 1.2 0.4 0.3 0.8 0.6 1.2 0.8 0.5 0.2 1 0.3 1.6 0.3 0.6 0 1.1-0.1 1.6-0.3 0.5-0.2 0.9-0.4 1.2-0.8 0.4-0.3 0.6-0.7 0.8-1.2 0.2-0.5 0.3-1 0.3-1.6 0-0.6-0.1-1.1-0.3-1.6 -0.2-0.5-0.5-0.9-0.8-1.2 -0.3-0.3-0.8-0.6-1.2-0.8C290.1 17.2 289.6 17.1 289 17.1L289 17.1z"/><path class="st7" d="M289 8.6c0.4 0 0.7 0.1 1 0.2 0.3 0.1 0.5 0.2 0.7 0.4 0.2 0.2 0.3 0.4 0.4 0.6 0.1 0.3 0.2 0.6 0.2 0.9 0 0.4-0.1 0.7-0.2 0.9 -0.1 0.3-0.2 0.5-0.4 0.6 -0.2 0.2-0.4 0.3-0.7 0.4 -0.3 0.1-0.6 0.2-1 0.2 -0.4 0-0.7 0-1-0.2 -0.3-0.1-0.5-0.2-0.7-0.4 -0.2-0.2-0.3-0.4-0.4-0.6 -0.1-0.3-0.2-0.6-0.2-0.9 0-0.3 0.1-0.7 0.2-0.9 0.1-0.2 0.2-0.4 0.4-0.6 0.2-0.2 0.4-0.3 0.7-0.4C288.4 8.7 288.7 8.6 289 8.6M289 6.9c-0.6 0-1.1 0.1-1.6 0.3 -0.5 0.2-0.9 0.4-1.2 0.8 -0.3 0.3-0.6 0.7-0.8 1.2 -0.2 0.5-0.3 1-0.3 1.6 0 0.6 0.1 1.1 0.3 1.6 0.2 0.5 0.5 0.9 0.8 1.2 0.4 0.3 0.8 0.6 1.2 0.8 0.5 0.2 1 0.3 1.6 0.3s1.1-0.1 1.6-0.3c0.5-0.2 0.9-0.4 1.2-0.8 0.4-0.3 0.6-0.7 0.8-1.2 0.2-0.5 0.3-1 0.3-1.6 0-0.6-0.1-1.1-0.3-1.6 -0.2-0.5-0.5-0.9-0.8-1.2 -0.3-0.3-0.8-0.6-1.2-0.8C290.1 7 289.6 6.9 289 6.9L289 6.9z"/><path class="st5" d="M299 39.2c0.3 0 0.6 0.1 0.9 0.1 0.2 0.1 0.4 0.2 0.6 0.4 0.2 0.1 0.3 0.3 0.4 0.5 0.1 0.2 0.2 0.5 0.2 0.8 0 0.3 0 0.6-0.1 0.8 -0.1 0.2-0.2 0.4-0.4 0.5 -0.2 0.2-0.3 0.3-0.6 0.4 -0.3 0.1-0.6 0.2-0.9 0.2 -0.3 0-0.6 0-0.9-0.1 -0.2-0.1-0.4-0.2-0.6-0.3 -0.1-0.1-0.3-0.3-0.4-0.5 -0.1-0.2-0.1-0.5-0.1-0.8 0-0.3 0.1-0.6 0.1-0.8 0.1-0.2 0.2-0.4 0.4-0.5 0.2-0.1 0.4-0.3 0.6-0.3C298.4 39.3 298.7 39.2 299 39.2M299 37.3c-0.6 0-1.1 0.1-1.6 0.3 -0.5 0.2-0.9 0.4-1.2 0.8 -0.3 0.3-0.6 0.7-0.8 1.2 -0.2 0.5-0.3 1-0.3 1.6s0.1 1.1 0.3 1.6c0.2 0.5 0.5 0.9 0.8 1.2 0.4 0.3 0.8 0.6 1.2 0.8 0.5 0.2 1 0.3 1.6 0.3s1.1-0.1 1.6-0.3c0.5-0.2 0.9-0.4 1.2-0.8 0.4-0.3 0.6-0.7 0.8-1.2 0.2-0.5 0.3-1 0.3-1.6s-0.1-1.1-0.3-1.6c-0.2-0.5-0.5-0.9-0.8-1.2 -0.3-0.3-0.8-0.6-1.2-0.8C300.1 37.4 299.6 37.3 299 37.3L299 37.3z"/><path class="st10" d="M295.1 31.1c0-0.6 0.1-1.1 0.3-1.6 0.2-0.5 0.5-0.9 0.8-1.2 0.4-0.3 0.8-0.6 1.2-0.8 0.5-0.2 1-0.3 1.6-0.3s1.1 0.1 1.6 0.3c0.5 0.2 0.9 0.4 1.2 0.8 0.4 0.3 0.6 0.7 0.8 1.2 0.2 0.5 0.3 1 0.3 1.6s-0.1 1.1-0.3 1.6c-0.2 0.5-0.5 0.9-0.8 1.2 -0.3 0.3-0.8 0.6-1.2 0.8 -0.5 0.2-1 0.3-1.6 0.3s-1.1-0.1-1.6-0.3c-0.5-0.2-0.9-0.4-1.2-0.8 -0.3-0.3-0.6-0.7-0.8-1.2S295.1 31.7 295.1 31.1zM296.7 31.1c0 0.3 0.1 0.7 0.2 0.9 0.1 0.3 0.3 0.5 0.5 0.7 0.2 0.2 0.4 0.4 0.7 0.5 0.3 0.1 0.6 0.2 0.9 0.2s0.7-0.1 0.9-0.2c0.3-0.1 0.5-0.3 0.7-0.5 0.2-0.2 0.4-0.4 0.5-0.7 0.1-0.3 0.2-0.6 0.2-0.9 0-0.3 0-0.6-0.2-0.9 -0.1-0.3-0.3-0.5-0.5-0.7 -0.2-0.2-0.4-0.4-0.7-0.5 -0.3-0.1-0.6-0.2-0.9-0.2s-0.6 0.1-0.9 0.2 -0.5 0.3-0.7 0.5c-0.2 0.2-0.3 0.5-0.5 0.7C296.8 30.5 296.7 30.8 296.7 31.1z"/><path class="st3" d="M295.1 20.9c0-0.6 0.1-1.1 0.3-1.6 0.2-0.5 0.5-0.9 0.8-1.2 0.4-0.3 0.8-0.6 1.2-0.8 0.5-0.2 1-0.3 1.6-0.3s1.1 0.1 1.6 0.3c0.5 0.2 0.9 0.4 1.2 0.8 0.4 0.3 0.6 0.7 0.8 1.2 0.2 0.5 0.3 1 0.3 1.6 0 0.6-0.1 1.1-0.3 1.6 -0.2 0.5-0.5 0.9-0.8 1.2 -0.3 0.3-0.8 0.6-1.2 0.8 -0.5 0.2-1 0.3-1.6 0.3s-1.1-0.1-1.6-0.3c-0.5-0.2-0.9-0.4-1.2-0.8 -0.3-0.3-0.6-0.7-0.8-1.2C295.2 22 295.1 21.5 295.1 20.9zM296.7 20.9c0 0.3 0.1 0.7 0.2 0.9 0.1 0.3 0.3 0.5 0.5 0.7 0.2 0.2 0.4 0.4 0.7 0.5 0.3 0.1 0.6 0.2 0.9 0.2s0.7-0.1 0.9-0.2c0.3-0.1 0.5-0.3 0.7-0.5 0.2-0.2 0.4-0.4 0.5-0.7 0.1-0.3 0.2-0.6 0.2-0.9 0-0.3 0-0.6-0.2-0.9 -0.1-0.3-0.3-0.5-0.5-0.7 -0.2-0.2-0.4-0.4-0.7-0.5 -0.3-0.1-0.6-0.2-0.9-0.2s-0.6 0.1-0.9 0.2c-0.3 0.1-0.5 0.3-0.7 0.5 -0.2 0.2-0.3 0.5-0.5 0.7C296.8 20.3 296.7 20.6 296.7 20.9z"/><path class="st8" d="M295.1 10.7c0-0.6 0.1-1.1 0.3-1.6 0.2-0.5 0.5-0.9 0.8-1.2 0.4-0.3 0.8-0.6 1.2-0.8 0.5-0.2 1-0.3 1.6-0.3s1.1 0.1 1.6 0.3c0.5 0.2 0.9 0.4 1.2 0.8 0.4 0.3 0.6 0.7 0.8 1.2 0.2 0.5 0.3 1 0.3 1.6 0 0.6-0.1 1.1-0.3 1.6 -0.2 0.5-0.5 0.9-0.8 1.2 -0.3 0.3-0.8 0.6-1.2 0.8 -0.5 0.2-1 0.3-1.6 0.3s-1.1-0.1-1.6-0.3c-0.5-0.2-0.9-0.4-1.2-0.8 -0.3-0.3-0.6-0.7-0.8-1.2C295.2 11.8 295.1 11.3 295.1 10.7zM296.7 10.7c0 0.3 0.1 0.7 0.2 0.9 0.1 0.3 0.3 0.5 0.5 0.7 0.2 0.2 0.4 0.4 0.7 0.5 0.3 0.1 0.6 0.2 0.9 0.2s0.7-0.1 0.9-0.2c0.3-0.1 0.5-0.3 0.7-0.5 0.2-0.2 0.4-0.4 0.5-0.7 0.1-0.3 0.2-0.6 0.2-0.9 0-0.3 0-0.6-0.2-0.9 -0.1-0.3-0.3-0.5-0.5-0.7 -0.2-0.2-0.4-0.4-0.7-0.5 -0.3-0.1-0.6-0.2-0.9-0.2s-0.6 0.1-0.9 0.2c-0.3 0.1-0.5 0.3-0.7 0.5 -0.2 0.2-0.3 0.5-0.5 0.7C296.8 10.1 296.7 10.4 296.7 10.7z"/><path class="st6" d="M305 41.1c0-0.6 0.1-1.1 0.3-1.6 0.2-0.5 0.5-0.9 0.8-1.2 0.4-0.3 0.8-0.6 1.2-0.8 0.5-0.2 1-0.3 1.6-0.3 0.6 0 1.1 0.1 1.6 0.3 0.5 0.2 0.9 0.4 1.2 0.8 0.4 0.3 0.6 0.7 0.8 1.2 0.2 0.5 0.3 1 0.3 1.6s-0.1 1.1-0.3 1.6c-0.2 0.5-0.5 0.9-0.8 1.2 -0.3 0.3-0.8 0.6-1.2 0.8 -0.5 0.2-1 0.3-1.6 0.3 -0.6 0-1.1-0.1-1.6-0.3 -0.5-0.2-0.9-0.4-1.2-0.8 -0.3-0.3-0.6-0.7-0.8-1.2C305.1 42.2 305 41.7 305 41.1zM306.7 41.1c0 0.3 0.1 0.7 0.2 0.9 0.1 0.3 0.3 0.5 0.5 0.7 0.2 0.2 0.4 0.4 0.7 0.5 0.3 0.1 0.6 0.2 0.9 0.2 0.3 0 0.7-0.1 0.9-0.2 0.3-0.1 0.5-0.3 0.7-0.5 0.2-0.2 0.4-0.4 0.5-0.7 0.1-0.3 0.2-0.6 0.2-0.9 0-0.3 0-0.6-0.2-0.9 -0.1-0.3-0.3-0.5-0.5-0.7 -0.2-0.2-0.4-0.4-0.7-0.5 -0.3-0.1-0.6-0.2-0.9-0.2 -0.3 0-0.6 0.1-0.9 0.2 -0.3 0.1-0.5 0.3-0.7 0.5 -0.2 0.2-0.3 0.5-0.5 0.7C306.7 40.5 306.7 40.8 306.7 41.1z"/><path class="st9" d="M309 29.7c0.3 0 0.5 0 0.7 0.1 0.2 0.1 0.3 0.1 0.4 0.3 0.1 0.1 0.2 0.2 0.2 0.4 0.1 0.2 0.1 0.4 0.1 0.7 0 0.3 0 0.5-0.1 0.7 -0.1 0.2-0.1 0.3-0.2 0.4 -0.1 0.1-0.2 0.2-0.4 0.3 -0.2 0.1-0.4 0.1-0.7 0.1s-0.5 0-0.7-0.1c-0.2-0.1-0.3-0.1-0.4-0.2 -0.1-0.1-0.2-0.2-0.2-0.4 -0.1-0.2-0.1-0.4-0.1-0.6 0-0.3 0-0.5 0.1-0.6 0.1-0.2 0.1-0.3 0.2-0.4 0.1-0.1 0.2-0.2 0.4-0.2C308.4 29.8 308.7 29.7 309 29.7M309 27.3c-0.6 0-1.1 0.1-1.6 0.3 -0.5 0.2-0.9 0.4-1.2 0.8 -0.3 0.3-0.6 0.7-0.8 1.2 -0.2 0.5-0.3 1-0.3 1.6s0.1 1.1 0.3 1.6c0.2 0.5 0.5 0.9 0.8 1.2 0.4 0.3 0.8 0.6 1.2 0.8 0.5 0.2 1 0.3 1.6 0.3 0.6 0 1.1-0.1 1.6-0.3 0.5-0.2 0.9-0.4 1.2-0.8 0.4-0.3 0.6-0.7 0.8-1.2 0.2-0.5 0.3-1 0.3-1.6s-0.1-1.1-0.3-1.6c-0.2-0.5-0.5-0.9-0.8-1.2 -0.3-0.3-0.8-0.6-1.2-0.8C310 27.4 309.5 27.3 309 27.3L309 27.3z"/><path class="st5" d="M309 17.8c0.5 0 0.9 0.1 1.3 0.2 0.4 0.1 0.7 0.4 1 0.6 0.3 0.3 0.5 0.6 0.6 1 0.2 0.4 0.2 0.8 0.2 1.3 0 0.5-0.1 0.9-0.2 1.3 -0.2 0.4-0.4 0.7-0.6 1 -0.3 0.3-0.6 0.5-1 0.6 -0.4 0.2-0.8 0.2-1.3 0.2 -0.5 0-0.9-0.1-1.3-0.2 -0.4-0.1-0.7-0.3-1-0.6 -0.3-0.3-0.5-0.6-0.6-0.9 -0.2-0.4-0.2-0.8-0.2-1.3 0-0.5 0.1-0.9 0.2-1.3 0.2-0.4 0.4-0.7 0.6-0.9 0.3-0.3 0.6-0.5 1-0.6C308 17.9 308.5 17.8 309 17.8M309 17.1c-0.6 0-1.1 0.1-1.6 0.3 -0.5 0.2-0.9 0.4-1.2 0.8 -0.3 0.3-0.6 0.7-0.8 1.2 -0.2 0.5-0.3 1-0.3 1.6 0 0.6 0.1 1.1 0.3 1.6 0.2 0.5 0.5 0.9 0.8 1.2 0.4 0.3 0.8 0.6 1.2 0.8 0.5 0.2 1 0.3 1.6 0.3 0.6 0 1.1-0.1 1.6-0.3 0.5-0.2 0.9-0.4 1.2-0.8 0.4-0.3 0.6-0.7 0.8-1.2 0.2-0.5 0.3-1 0.3-1.6 0-0.6-0.1-1.1-0.3-1.6 -0.2-0.5-0.5-0.9-0.8-1.2 -0.3-0.3-0.8-0.6-1.2-0.8C310 17.2 309.5 17.1 309 17.1L309 17.1z"/><path class="st1" d="M305 10.7c0-0.6 0.1-1.1 0.3-1.6 0.2-0.5 0.5-0.9 0.8-1.2 0.4-0.3 0.8-0.6 1.2-0.8 0.5-0.2 1-0.3 1.6-0.3 0.6 0 1.1 0.1 1.6 0.3 0.5 0.2 0.9 0.4 1.2 0.8 0.4 0.3 0.6 0.7 0.8 1.2 0.2 0.5 0.3 1 0.3 1.6 0 0.6-0.1 1.1-0.3 1.6 -0.2 0.5-0.5 0.9-0.8 1.2 -0.3 0.3-0.8 0.6-1.2 0.8 -0.5 0.2-1 0.3-1.6 0.3 -0.6 0-1.1-0.1-1.6-0.3 -0.5-0.2-0.9-0.4-1.2-0.8 -0.3-0.3-0.6-0.7-0.8-1.2C305.1 11.8 305 11.3 305 10.7zM306.7 10.7c0 0.3 0.1 0.7 0.2 0.9 0.1 0.3 0.3 0.5 0.5 0.7 0.2 0.2 0.4 0.4 0.7 0.5 0.3 0.1 0.6 0.2 0.9 0.2 0.3 0 0.7-0.1 0.9-0.2 0.3-0.1 0.5-0.3 0.7-0.5 0.2-0.2 0.4-0.4 0.5-0.7 0.1-0.3 0.2-0.6 0.2-0.9 0-0.3 0-0.6-0.2-0.9 -0.1-0.3-0.3-0.5-0.5-0.7 -0.2-0.2-0.4-0.4-0.7-0.5 -0.3-0.1-0.6-0.2-0.9-0.2 -0.3 0-0.6 0.1-0.9 0.2 -0.3 0.1-0.5 0.3-0.7 0.5 -0.2 0.2-0.3 0.5-0.5 0.7C306.7 10.1 306.7 10.4 306.7 10.7z"/></svg>